ffmpeg started on 2025-05-28 at 20:17:31
Report written to "D:\Convert\FFMetrics\reports\psnr_report-6.txt"
Log level: 32
Command line:
ffmpeg -hide_banner -nostdin -i "G:\\\xc0\xed\xe8\xec\xe5\\\xce\xed\xe3\xee\xe8\xed\xe3\xe8\\!_36_\xce\xf1\xe5\xed\xfc_2024\\JamClub\\\xc8\xf1\xf2\xee\xf0\xe8\xff \xee \xf2\xee\xec, \xea\xe0\xea \xff \xef\xf0\xe8\xf8\xb8\xeb \xed\xe0 \xe2\xe5\xf7\xe5\xf0\xe8\xed\xea\xf3, \xe0 \xf2\xe0\xec \xed\xe5 \xe1\xfb\xeb\xee \xed\xe8 \xee\xe4\xed\xee\xe9 \xe6\xe5\xed\xf9\xe8\xed\xfb\\JamClub_Goukon_ni_Ittara_Onna_ga_Inakatta_Hanashi_02_1080p_HEVC.mkv" -i "G:\\\xc0\xed\xe8\xec\xe5\\\xce\xed\xe3\xee\xe8\xed\xe3\xe8\\!_36_\xce\xf1\xe5\xed\xfc_2024\\JamClub\\\xc8\xf1\xf2\xee\xf0\xe8\xff \xee \xf2\xee\xec, \xea\xe0\xea \xff \xef\xf0\xe8\xf8\xb8\xeb \xed\xe0 \xe2\xe5\xf7\xe5\xf0\xe8\xed\xea\xf3, \xe0 \xf2\xe0\xec \xed\xe5 \xe1\xfb\xeb\xee \xed\xe8 \xee\xe4\xed\xee\xe9 \xe6\xe5\xed\xf9\xe8\xed\xfb\\JamClub_Goukon_ni_Ittara_Onna_ga_Inakatta_Hanashi_02_1080p.mp4" -lavfi "[0:v]settb=AVTB,setpts=PTS-STARTPTS,format=pix_fmts=yuv420p10,fps=24000/1001,scale=1920:1080:flags=bicubic[main];[1:v]settb=AVTB,setpts=PTS-STARTPTS,format=pix_fmts=yuv420p,fps=24000/1001,scale=1920:1080:flags=bicubic[ref];[main][ref]psnr=eof_action=endall:stats_file='D\\:/Convert/FFMetrics/logs/psnr_logfile-6.txt'" -f null -
Input #0, matroska,webm, from 'G:\Аниме\Онгоинги\!_36_Осень_2024\JamClub\История о том, как я пришёл на вечеринку, а там не было ни одной женщины\JamClub_Goukon_ni_Ittara_Onna_ga_Inakatta_Hanashi_02_1080p_HEVC.mkv':
  Metadata:
    COMPATIBLE_BRANDS: isomiso2avc1mp41
    MAJOR_BRAND     : isom
    MINOR_VERSION   : 512
    ENCODER         : Lavf61.7.100
  Duration: 00:24:05.31, start: -0.001000, bitrate: 817 kb/s
  Stream #0:0: Video: hevc (Main 10), yuv420p10le(tv, bt709, progressive), 1920x1080 [SAR 1:1 DAR 16:9], 23.98 fps, 23.98 tbr, 1k tbn (default)
      Metadata:
        HANDLER_NAME    : VideoHandler
        VENDOR_ID       : [0][0][0][0]
        ENCODER         : Lavc61.19.100 libx265
        BPS             : 620824
        DURATION        : 00:24:03.608708333
        NUMBER_OF_FRAMES: 34612
        NUMBER_OF_BYTES : 112028398
        _STATISTICS_WRITING_APP: mkvpropedit v66.0.0 ('Josie') 64-bit
        _STATISTICS_WRITING_DATE_UTC: 2025-05-28 09:37:33
        _STATISTICS_TAGS: BPS DURATION NUMBER_OF_FRAMES NUMBER_OF_BYTES
  Stream #0:1(eng): Audio: aac (LC), 48000 Hz, stereo, fltp (default)
      Metadata:
        HANDLER_NAME    : SoundHandler
        VENDOR_ID       : [0][0][0][0]
        ENCODER         : Lavc61.19.100 aac
        BPS             : 193505
        DURATION        : 00:24:05.272000000
        NUMBER_OF_FRAMES: 67748
        NUMBER_OF_BYTES : 34958458
        _STATISTICS_WRITING_APP: mkvpropedit v66.0.0 ('Josie') 64-bit
        _STATISTICS_WRITING_DATE_UTC: 2025-05-28 09:37:33
        _STATISTICS_TAGS: BPS DURATION NUMBER_OF_FRAMES NUMBER_OF_BYTES
Input #1, mov,mp4,m4a,3gp,3g2,mj2, from 'G:\Аниме\Онгоинги\!_36_Осень_2024\JamClub\История о том, как я пришёл на вечеринку, а там не было ни одной женщины\JamClub_Goukon_ni_Ittara_Onna_ga_Inakatta_Hanashi_02_1080p.mp4':
  Metadata:
    major_brand     : isom
    minor_version   : 512
    compatible_brands: isomiso2avc1mp41
    encoder         : Lavf60.16.100
  Duration: 00:24:05.29, start: 0.000000, bitrate: 2522 kb/s
  Stream #1:0[0x1](und): Video: h264 (High) (avc1 / 0x31637661), yuv420p(progressive), 1920x1080 [SAR 1:1 DAR 16:9], 2327 kb/s, 23.98 fps, 23.98 tbr, 90k tbn (default)
      Metadata:
        handler_name    : VideoHandler
        vendor_id       : [0][0][0][0]
  Stream #1:1[0x2](eng): Audio: aac (LC) (mp4a / 0x6134706D), 48000 Hz, stereo, fltp, 191 kb/s (default)
      Metadata:
        handler_name    : SoundHandler
        vendor_id       : [0][0][0][0]
Stream mapping:
  Stream #0:0 (hevc) -> settb:default
  Stream #1:0 (h264) -> settb:default
  psnr:default -> Stream #0:0 (wrapped_avframe)
  Stream #0:1 -> #0:1 (aac (native) -> pcm_s16le (native))
Output #0, null, to 'pipe:':
  Metadata:
    COMPATIBLE_BRANDS: isomiso2avc1mp41
    MAJOR_BRAND     : isom
    MINOR_VERSION   : 512
    encoder         : Lavf61.7.100
  Stream #0:0: Video: wrapped_avframe, yuv420p10le(tv, bt709, progressive), 1920x1080 [SAR 1:1 DAR 16:9], q=2-31, 200 kb/s, 23.98 fps, 23.98 tbn
      Metadata:
        encoder         : Lavc61.19.100 wrapped_avframe
  Stream #0:1(eng): Audio: pcm_s16le, 48000 Hz, stereo, s16, 1536 kb/s (default)
      Metadata:
        HANDLER_NAME    : SoundHandler
        VENDOR_ID       : [0][0][0][0]
        _STATISTICS_TAGS: BPS DURATION NUMBER_OF_FRAMES NUMBER_OF_BYTES
        BPS             : 193505
        DURATION        : 00:24:05.272000000
        NUMBER_OF_FRAMES: 67748
        NUMBER_OF_BYTES : 34958458
        _STATISTICS_WRITING_APP: mkvpropedit v66.0.0 ('Josie') 64-bit
        _STATISTICS_WRITING_DATE_UTC: 2025-05-28 09:37:33
        encoder         : Lavc61.19.100 pcm_s16le
frame=  110 fps=0.0 q=-0.0 size=N/A time=00:00:04.58 bitrate=N/A speed=9.05x    frame=  274 fps=267 q=-0.0 size=N/A time=00:00:11.42 bitrate=N/A speed=11.1x    frame=  467 fps=304 q=-0.0 size=N/A time=00:00:19.47 bitrate=N/A speed=12.7x    frame=  728 fps=354 q=-0.0 size=N/A time=00:00:30.36 bitrate=N/A speed=14.7x    frame=  964 fps=376 q=-0.0 size=N/A time=00:00:40.20 bitrate=N/A speed=15.7x    frame= 1222 fps=395 q=-0.0 size=N/A time=00:00:50.96 bitrate=N/A speed=16.5x    frame= 1493 fps=414 q=-0.0 size=N/A time=00:01:02.27 bitrate=N/A speed=17.3x    frame= 1753 fps=426 q=-0.0 size=N/A time=00:01:13.11 bitrate=N/A speed=17.8x    frame= 2036 fps=440 q=-0.0 size=N/A time=00:01:24.91 bitrate=N/A speed=18.3x    frame= 2268 fps=440 q=-0.0 size=N/A time=00:01:34.59 bitrate=N/A speed=18.4x    frame= 2472 fps=437 q=-0.0 size=N/A time=00:01:43.10 bitrate=N/A speed=18.2x    frame= 2708 fps=438 q=-0.0 size=N/A time=00:01:52.94 bitrate=N/A speed=18.3x    frame= 2970 fps=443 q=-0.0 size=N/A time=00:02:03.87 bitrate=N/A speed=18.5x    frame= 3180 fps=441 q=-0.0 size=N/A time=00:02:12.63 bitrate=N/A speed=18.4x    frame= 3419 fps=442 q=-0.0 size=N/A time=00:02:22.60 bitrate=N/A speed=18.4x    frame= 3639 fps=442 q=-0.0 size=N/A time=00:02:31.77 bitrate=N/A speed=18.4x    frame= 3896 fps=445 q=-0.0 size=N/A time=00:02:42.49 bitrate=N/A speed=18.5x    frame= 4144 fps=447 q=-0.0 size=N/A time=00:02:52.83 bitrate=N/A speed=18.6x    frame= 4410 fps=450 q=-0.0 size=N/A time=00:03:03.93 bitrate=N/A speed=18.8x    frame= 4675 fps=453 q=-0.0 size=N/A time=00:03:14.98 bitrate=N/A speed=18.9x    frame= 4940 fps=457 q=-0.0 size=N/A time=00:03:26.03 bitrate=N/A speed=  19x    frame= 5225 fps=461 q=-0.0 size=N/A time=00:03:37.92 bitrate=N/A speed=19.2x    frame= 5498 fps=464 q=-0.0 size=N/A time=00:03:49.31 bitrate=N/A speed=19.3x    frame= 5773 fps=467 q=-0.0 size=N/A time=00:04:00.78 bitrate=N/A speed=19.5x    frame= 6051 fps=470 q=-0.0 size=N/A time=00:04:12.37 bitrate=N/A speed=19.6x    frame= 6318 fps=472 q=-0.0 size=N/A time=00:04:23.51 bitrate=N/A speed=19.7x    frame= 6570 fps=472 q=-0.0 size=N/A time=00:04:34.02 bitrate=N/A speed=19.7x    frame= 6850 fps=475 q=-0.0 size=N/A time=00:04:45.70 bitrate=N/A speed=19.8x    frame= 7111 fps=476 q=-0.0 size=N/A time=00:04:56.58 bitrate=N/A speed=19.8x    frame= 7381 fps=478 q=-0.0 size=N/A time=00:05:07.84 bitrate=N/A speed=19.9x    frame= 7655 fps=479 q=-0.0 size=N/A time=00:05:19.27 bitrate=N/A speed=  20x    frame= 7928 fps=481 q=-0.0 size=N/A time=00:05:30.66 bitrate=N/A speed=20.1x    frame= 8209 fps=483 q=-0.0 size=N/A time=00:05:42.38 bitrate=N/A speed=20.1x    frame= 8449 fps=482 q=-0.0 size=N/A time=00:05:52.39 bitrate=N/A speed=20.1x    frame= 8730 fps=484 q=-0.0 size=N/A time=00:06:04.11 bitrate=N/A speed=20.2x    frame= 8995 fps=485 q=-0.0 size=N/A time=00:06:15.16 bitrate=N/A speed=20.2x    frame= 9276 fps=486 q=-0.0 size=N/A time=00:06:26.92 bitrate=N/A speed=20.3x    frame= 9536 fps=487 q=-0.0 size=N/A time=00:06:37.73 bitrate=N/A speed=20.3x    frame= 9780 fps=486 q=-0.0 size=N/A time=00:06:47.90 bitrate=N/A speed=20.3x    frame=10043 fps=487 q=-0.0 size=N/A time=00:06:58.87 bitrate=N/A speed=20.3x    frame=10309 fps=488 q=-0.0 size=N/A time=00:07:09.97 bitrate=N/A speed=20.3x    frame=10589 fps=489 q=-0.0 size=N/A time=00:07:21.64 bitrate=N/A speed=20.4x    frame=10856 fps=490 q=-0.0 size=N/A time=00:07:32.78 bitrate=N/A speed=20.4x    frame=11128 fps=490 q=-0.0 size=N/A time=00:07:44.13 bitrate=N/A speed=20.5x    frame=11394 fps=491 q=-0.0 size=N/A time=00:07:55.22 bitrate=N/A speed=20.5x    frame=11654 fps=491 q=-0.0 size=N/A time=00:08:06.06 bitrate=N/A speed=20.5x    frame=11919 fps=492 q=-0.0 size=N/A time=00:08:17.12 bitrate=N/A speed=20.5x    frame=12187 fps=492 q=-0.0 size=N/A time=00:08:28.29 bitrate=N/A speed=20.5x    frame=12454 fps=493 q=-0.0 size=N/A time=00:08:39.43 bitrate=N/A speed=20.6x    frame=12723 fps=494 q=-0.0 size=N/A time=00:08:50.65 bitrate=N/A speed=20.6x    frame=12993 fps=494 q=-0.0 size=N/A time=00:09:01.91 bitrate=N/A speed=20.6x    frame=13275 fps=495 q=-0.0 size=N/A time=00:09:13.67 bitrate=N/A speed=20.7x    frame=13504 fps=494 q=-0.0 size=N/A time=00:09:23.22 bitrate=N/A speed=20.6x    frame=13708 fps=492 q=-0.0 size=N/A time=00:09:31.73 bitrate=N/A speed=20.5x    frame=13961 fps=493 q=-0.0 size=N/A time=00:09:42.29 bitrate=N/A speed=20.5x    frame=14243 fps=493 q=-0.0 size=N/A time=00:09:54.05 bitrate=N/A speed=20.6x    frame=14484 fps=493 q=-0.0 size=N/A time=00:10:04.10 bitrate=N/A speed=20.6x    frame=14746 fps=493 q=-0.0 size=N/A time=00:10:15.03 bitrate=N/A speed=20.6x    frame=15007 fps=494 q=-0.0 size=N/A time=00:10:25.91 bitrate=N/A speed=20.6x    frame=15273 fps=494 q=-0.0 size=N/A time=00:10:37.01 bitrate=N/A speed=20.6x    frame=15521 fps=493 q=-0.0 size=N/A time=00:10:47.35 bitrate=N/A speed=20.6x    frame=15777 fps=493 q=-0.0 size=N/A time=00:10:58.03 bitrate=N/A speed=20.6x    frame=16057 fps=494 q=-0.0 size=N/A time=00:11:09.71 bitrate=N/A speed=20.6x    frame=16337 fps=495 q=-0.0 size=N/A time=00:11:21.38 bitrate=N/A speed=20.6x    frame=16622 fps=496 q=-0.0 size=N/A time=00:11:33.27 bitrate=N/A speed=20.7x    frame=16885 fps=496 q=-0.0 size=N/A time=00:11:44.24 bitrate=N/A speed=20.7x    frame=17148 fps=496 q=-0.0 size=N/A time=00:11:55.21 bitrate=N/A speed=20.7x    frame=17383 fps=495 q=-0.0 size=N/A time=00:12:05.01 bitrate=N/A speed=20.7x    frame=17672 fps=496 q=-0.0 size=N/A time=00:12:17.06 bitrate=N/A speed=20.7x    frame=17908 fps=496 q=-0.0 size=N/A time=00:12:26.91 bitrate=N/A speed=20.7x    frame=18178 fps=496 q=-0.0 size=N/A time=00:12:38.17 bitrate=N/A speed=20.7x    frame=18428 fps=496 q=-0.0 size=N/A time=00:12:48.60 bitrate=N/A speed=20.7x    frame=18705 fps=497 q=-0.0 size=N/A time=00:13:00.15 bitrate=N/A speed=20.7x    frame=18937 fps=496 q=-0.0 size=N/A time=00:13:09.83 bitrate=N/A speed=20.7x    frame=19187 fps=496 q=-0.0 size=N/A time=00:13:20.25 bitrate=N/A speed=20.7x    frame=19457 fps=496 q=-0.0 size=N/A time=00:13:31.51 bitrate=N/A speed=20.7x    frame=19729 fps=497 q=-0.0 size=N/A time=00:13:42.86 bitrate=N/A speed=20.7x    frame=19985 fps=497 q=-0.0 size=N/A time=00:13:53.54 bitrate=N/A speed=20.7x    frame=20247 fps=497 q=-0.0 size=N/A time=00:14:04.46 bitrate=N/A speed=20.7x    frame=20502 fps=497 q=-0.0 size=N/A time=00:14:15.10 bitrate=N/A speed=20.7x    frame=20762 fps=497 q=-0.0 size=N/A time=00:14:25.94 bitrate=N/A speed=20.7x    frame=21034 fps=497 q=-0.0 size=N/A time=00:14:37.29 bitrate=N/A speed=20.7x    frame=21284 fps=497 q=-0.0 size=N/A time=00:14:47.72 bitrate=N/A speed=20.7x    frame=21553 fps=497 q=-0.0 size=N/A time=00:14:58.93 bitrate=N/A speed=20.7x    frame=21811 fps=497 q=-0.0 size=N/A time=00:15:09.70 bitrate=N/A speed=20.7x    frame=22077 fps=498 q=-0.0 size=N/A time=00:15:20.79 bitrate=N/A speed=20.8x    frame=22364 fps=498 q=-0.0 size=N/A time=00:15:32.76 bitrate=N/A speed=20.8x    frame=22630 fps=498 q=-0.0 size=N/A time=00:15:43.85 bitrate=N/A speed=20.8x    frame=22914 fps=499 q=-0.0 size=N/A time=00:15:55.70 bitrate=N/A speed=20.8x    frame=23181 fps=499 q=-0.0 size=N/A time=00:16:06.84 bitrate=N/A speed=20.8x    frame=23438 fps=499 q=-0.0 size=N/A time=00:16:17.55 bitrate=N/A speed=20.8x    frame=23706 fps=500 q=-0.0 size=N/A time=00:16:28.73 bitrate=N/A speed=20.8x    frame=23960 fps=499 q=-0.0 size=N/A time=00:16:39.33 bitrate=N/A speed=20.8x    frame=24218 fps=499 q=-0.0 size=N/A time=00:16:50.09 bitrate=N/A speed=20.8x    frame=24475 fps=499 q=-0.0 size=N/A time=00:17:00.81 bitrate=N/A speed=20.8x    frame=24735 fps=500 q=-0.0 size=N/A time=00:17:11.65 bitrate=N/A speed=20.8x    frame=25000 fps=500 q=-0.0 size=N/A time=00:17:22.70 bitrate=N/A speed=20.8x    frame=25281 fps=500 q=-0.0 size=N/A time=00:17:34.42 bitrate=N/A speed=20.9x    frame=25545 fps=500 q=-0.0 size=N/A time=00:17:45.43 bitrate=N/A speed=20.9x    frame=25809 fps=500 q=-0.0 size=N/A time=00:17:56.45 bitrate=N/A speed=20.9x    frame=26088 fps=501 q=-0.0 size=N/A time=00:18:08.08 bitrate=N/A speed=20.9x    frame=26358 fps=501 q=-0.0 size=N/A time=00:18:19.34 bitrate=N/A speed=20.9x    frame=26616 fps=501 q=-0.0 size=N/A time=00:18:30.10 bitrate=N/A speed=20.9x    frame=26864 fps=501 q=-0.0 size=N/A time=00:18:40.45 bitrate=N/A speed=20.9x    frame=27113 fps=500 q=-0.0 size=N/A time=00:18:50.83 bitrate=N/A speed=20.9x    frame=27389 fps=501 q=-0.0 size=N/A time=00:19:02.34 bitrate=N/A speed=20.9x    frame=27649 fps=501 q=-0.0 size=N/A time=00:19:13.19 bitrate=N/A speed=20.9x    frame=27879 fps=500 q=-0.0 size=N/A time=00:19:22.78 bitrate=N/A speed=20.9x    frame=28155 fps=501 q=-0.0 size=N/A time=00:19:34.29 bitrate=N/A speed=20.9x    frame=28438 fps=501 q=-0.0 size=N/A time=00:19:46.10 bitrate=N/A speed=20.9x    frame=28697 fps=501 q=-0.0 size=N/A time=00:19:56.90 bitrate=N/A speed=20.9x    frame=28940 fps=501 q=-0.0 size=N/A time=00:20:07.03 bitrate=N/A speed=20.9x    frame=29217 fps=501 q=-0.0 size=N/A time=00:20:18.59 bitrate=N/A speed=20.9x    frame=29471 fps=501 q=-0.0 size=N/A time=00:20:29.18 bitrate=N/A speed=20.9x    frame=29743 fps=501 q=-0.0 size=N/A time=00:20:40.53 bitrate=N/A speed=20.9x    frame=30021 fps=502 q=-0.0 size=N/A time=00:20:52.12 bitrate=N/A speed=20.9x    frame=30315 fps=502 q=-0.0 size=N/A time=00:21:04.38 bitrate=N/A speed=20.9x    frame=30598 fps=503 q=-0.0 size=N/A time=00:21:16.19 bitrate=N/A speed=  21x    frame=30855 fps=503 q=-0.0 size=N/A time=00:21:26.91 bitrate=N/A speed=  21x    frame=31110 fps=503 q=-0.0 size=N/A time=00:21:37.54 bitrate=N/A speed=  21x    frame=31382 fps=503 q=-0.0 size=N/A time=00:21:48.89 bitrate=N/A speed=  21x    frame=31666 fps=503 q=-0.0 size=N/A time=00:22:00.73 bitrate=N/A speed=  21x    frame=31928 fps=503 q=-0.0 size=N/A time=00:22:11.66 bitrate=N/A speed=  21x    frame=32187 fps=503 q=-0.0 size=N/A time=00:22:22.46 bitrate=N/A speed=  21x    frame=32442 fps=503 q=-0.0 size=N/A time=00:22:33.10 bitrate=N/A speed=  21x    frame=32701 fps=503 q=-0.0 size=N/A time=00:22:43.90 bitrate=N/A speed=  21x    frame=32931 fps=503 q=-0.0 size=N/A time=00:22:53.49 bitrate=N/A speed=  21x    frame=33200 fps=503 q=-0.0 size=N/A time=00:23:04.71 bitrate=N/A speed=  21x    frame=33447 fps=503 q=-0.0 size=N/A time=00:23:15.01 bitrate=N/A speed=  21x    frame=33685 fps=502 q=-0.0 size=N/A time=00:23:24.94 bitrate=N/A speed=  21x    frame=33873 fps=501 q=-0.0 size=N/A time=00:23:32.78 bitrate=N/A speed=20.9x    frame=34120 fps=501 q=-0.0 size=N/A time=00:23:43.08 bitrate=N/A speed=20.9x    frame=34382 fps=501 q=-0.0 size=N/A time=00:23:54.01 bitrate=N/A speed=20.9x    [Parsed_psnr_10 @ 000002193c236d00] PSNR y:49.533381 u:51.922665 v:51.894076 average:50.190473 min:37.687346 max:inf
[out#0/null @ 0000021935674a80] video:14872KiB audio:270992KiB subtitle:0KiB other streams:0KiB global headers:0KiB muxing overhead: unknown
frame=34612 fps=501 q=-0.0 Lsize=N/A time=00:24:03.60 bitrate=N/A speed=20.9x    
